<svg viewBox="0 0 800 370" xmlns="http://www.w3.org/2000/svg">
  <!-- Background with gradient -->
  <defs>
    <linearGradient id="bg-gradient" x1="0%" y1="0%" x2="100%" y2="100%">
      <stop offset="0%" stop-color="#f0b742" />
      <stop offset="100%" stop-color="#4aba91" />
    </linearGradient>
    <radialGradient id="icon-bg" cx="50%" cy="50%" r="50%" fx="50%" fy="50%">
      <stop offset="0%" stop-color="#ffffff" />
      <stop offset="100%" stop-color="#f5f5f5" />
    </radialGradient>
    <!-- Missing Flutter gradient definition -->
    <linearGradient x1="3.9517088%" y1="26.9930287%" x2="75.8970734%" y2="52.9192657%" id="linearGradient-flutter">
      <stop stop-color="#000000" offset="0%"></stop>
      <stop stop-color="#000000" stop-opacity="0" offset="100%"></stop>
    </linearGradient>
    <!-- Missing Python gradient definitions -->
    <linearGradient id="paint0_linear_87_8204" x1="12.4809" y1="2" x2="12.4809" y2="22.7407" gradientUnits="userSpaceOnUse">
      <stop stop-color="#327EBD"/>
      <stop offset="1" stop-color="#1565A7"/>
    </linearGradient>
    <linearGradient id="paint1_linear_87_8204" x1="19.519" y1="9.25928" x2="19.519" y2="30" gradientUnits="userSpaceOnUse">
      <stop stop-color="#FFDA4B"/>
      <stop offset="1" stop-color="#F9C600"/>
    </linearGradient>
  </defs>
  
  <!-- Background -->
  <!-- <rect x="0" y="0" width="800" height="370" fill="#ffffff" rx="20" ry="20" /> -->
  
  <!-- Tech Icons - Arranged in a grid -->
  
  <!-- iOS (Apple) -->
   <g transform="translate(175, 50)">
    <circle cx="0" cy="0" r="40" fill="url(#icon-bg)" stroke="#e0e0e0" stroke-width="2">
      <animate attributeName="r" values="35;40;35" dur="3s" repeatCount="indefinite" begin="0.1s" />
    </circle>
    <!-- Apple Logo - Exact SVG path provided and centered properly -->
    <g transform="translate(-25, -25) scale(3.2)">
      <path d="M11.182.008C11.148-.03 9.923.023 8.857 1.18c-1.066 1.156-.902 2.482-.878 2.516.024.034 1.52.087 2.475-1.258.955-1.345.762-2.391.728-2.43zm3.314 11.733c-.048-.096-2.325-1.234-2.113-3.422.212-2.189 1.675-2.789 1.698-2.854.023-.065-.597-.79-1.254-1.157a3.692 3.692 0 0 0-1.563-.434c-.108-.003-.483-.095-1.254.116-.508.139-1.653.589-1.968.607-.316.018-1.256-.522-2.267-.665-.647-.125-1.333.131-1.824.328-.49.196-1.422.754-2.074 2.237-.652 1.482-.311 3.83-.067 4.56.244.729.625 1.924 1.273 2.796.576.984 1.34 1.667 1.659 1.899.319.232 1.219.386 1.843.067.502-.308 1.408-.485 1.766-.472.357.013 1.061.154 1.782.539.571.197 1.111.115 1.652-.105.541-.221 1.324-1.059 2.238-2.758.347-.79.505-1.217.473-1.282z" fill="#000">
        <animate attributeName="fill" values="#000;#333;#000" dur="3s" repeatCount="indefinite" begin="0.1s" />
      </path>
    </g>
    <text x="0" y="60" font-family="Arial" font-size="18" text-anchor="middle" fill="#333">iOS</text>
  </g>
  
 <!-- Flutter -->
  <g transform="translate(325, 50)">
    <circle cx="0" cy="0" r="40" fill="url(#icon-bg)" stroke="#e0e0e0" stroke-width="2">
      <animate attributeName="r" values="35;40;35" dur="3s" repeatCount="indefinite" begin="0.2s" />
    </circle>
    <!-- Official Flutter Logo -->
    <g transform="translate(-25, -25) scale(0.15)">
      <g>
        <polygon fill="#47C5FB" points="157.665785 0.000549356223 0.000549356223 157.665785 48.8009614 206.466197 255.267708 0.000549356223">
          <animate attributeName="fill" values="#47C5FB;#54D3FF;#47C5FB" dur="3s" repeatCount="indefinite" begin="0.2s" />
        </polygon>
        <polygon fill="#47C5FB" points="156.567183 145.396793 72.1487107 229.815265 121.132608 279.530905 169.842925 230.820587 255.267818 145.396793">
          <animate attributeName="fill" values="#47C5FB;#54D3FF;#47C5FB" dur="3s" repeatCount="indefinite" begin="0.3s" />
        </polygon>
        <polygon fill="#00569E" points="121.133047 279.531124 158.214592 316.61267 255.267159 316.61267 169.842266 230.820807">
          <animate attributeName="fill" values="#00569E;#0062B8;#00569E" dur="3s" repeatCount="indefinite" begin="0.4s" />
        </polygon>
        <polygon fill="#00B5F8" points="71.5995742 230.364072 120.401085 181.562561 169.842046 230.821136 121.132827 279.531454">
          <animate attributeName="fill" values="#00B5F8;#00C9FF;#00B5F8" dur="3s" repeatCount="indefinite" begin="0.5s" />
        </polygon>
        <polygon fill-opacity="0.8" fill="url(#linearGradient-flutter)" points="121.132827 279.531454 161.692896 266.072227 165.721875 234.941308">
        </polygon>
      </g>
    </g>
    <text x="0" y="60" font-family="Arial" font-size="18" text-anchor="middle" fill="#333">Flutter</text>
  </g>
  
  <!-- React Native -->
  <g transform="translate(475, 50)">
    <circle cx="0" cy="0" r="40" fill="url(#icon-bg)" stroke="#e0e0e0" stroke-width="2">
      <animate attributeName="r" values="35;40;35" dur="3s" repeatCount="indefinite" begin="0.3s" />
    </circle>
    <circle cx="0" cy="0" r="8" fill="#61DAFB" />
    <g>
      <animateTransform
        attributeName="transform"
        type="rotate"
        from="0 0 0"
        to="360 0 0"
        dur="10s"
        repeatCount="indefinite"
      />
      <ellipse cx="0" cy="0" rx="24" ry="9" fill="none" stroke="#61DAFB" stroke-width="3" />
      <ellipse cx="0" cy="0" rx="24" ry="9" fill="none" stroke="#61DAFB" stroke-width="3" transform="rotate(60)" />
      <ellipse cx="0" cy="0" rx="24" ry="9" fill="none" stroke="#61DAFB" stroke-width="3" transform="rotate(120)" />
    </g>
    <text x="0" y="70" font-family="Arial" font-size="16" text-anchor="middle" fill="#333">React Native</text>
  </g>
  
  <!-- Node.js - Official SVG -->
  <g transform="translate(625, 50)">
    <circle cx="0" cy="0" r="40" fill="url(#icon-bg)" stroke="#e0e0e0" stroke-width="2">
      <animate attributeName="r" values="35;40;35" dur="3s" repeatCount="indefinite" begin="0.4s" />
    </circle>
    <!-- Node.js Logo -->
    <g transform="translate(-23, -23) scale(1.5)">
      <rect x="2" y="2" width="28" height="28" fill="#FFCA28">
        <animate attributeName="fill" values="#FFCA28;#FFD54F;#FFCA28" dur="3s" repeatCount="indefinite" begin="0.4s" />
      </rect>
      <path d="M19 25.2879L21.0615 23.9237C21.2231 24.4313 22.2462 25.6368 23.5385 25.6368C24.8308 25.6368 25.4308 24.931 25.4308 24.463C25.4308 23.1878 24.1112 22.7382 23.4774 22.5223C23.374 22.4871 23.289 22.4581 23.2308 22.4328C23.2009 22.4198 23.1558 22.4025 23.0979 22.3804C22.393 22.1111 19.7923 21.1175 19.7923 18.2373C19.7923 15.065 22.8538 14.7002 23.5462 14.7002C23.9991 14.7002 26.1769 14.7557 27.2615 16.7939L25.2615 18.1898C24.8231 17.3015 24.0946 17.0081 23.6462 17.0081C22.5385 17.0081 22.3077 17.8201 22.3077 18.1898C22.3077 19.227 23.5112 19.6919 24.5273 20.0844C24.7932 20.1871 25.0462 20.2848 25.2615 20.3866C26.3692 20.91 28 21.7666 28 24.463C28 25.8136 26.8672 28.0002 24.0154 28.0002C20.1846 28.0002 19.1692 25.7003 19 25.2879Z" fill="#3E3E3E"/>
      <path d="M9 25.5587L11.1487 24.1953C11.317 24.7026 11.9713 25.638 12.9205 25.638C13.8698 25.638 14.3557 24.663 14.3557 24.1953V15.0002H16.9982V24.1953C17.041 25.4636 16.3376 28.0002 13.2332 28.0002C10.379 28.0002 9.19242 26.3039 9 25.5587Z" fill="#3E3E3E"/>
    </g>
    <text x="0" y="60" font-family="Arial" font-size="18" text-anchor="middle" fill="#333">Node.js</text>
  </g>
  
  <!-- Next.js -->
  <g transform="translate(175, 200)">
    <circle cx="0" cy="0" r="40" fill="url(#icon-bg)" stroke="#e0e0e0" stroke-width="2">
      <animate attributeName="r" values="35;40;35" dur="3s" repeatCount="indefinite" begin="0.5s" />
    </circle>
    <text x="0" y="17" font-family="Arial" font-weight="bold" font-size="44" text-anchor="middle" fill="#000">N</text>
    <text x="0" y="60" font-family="Arial" font-size="18" text-anchor="middle" fill="#333">Next.js</text>
  </g>
  
  <!-- AWS - Official SVG -->
  <g transform="translate(325, 200)">
    <circle cx="0" cy="0" r="40" fill="url(#icon-bg)" stroke="#e0e0e0" stroke-width="2">
      <animate attributeName="r" values="35;40;35" dur="3s" repeatCount="indefinite" begin="0.6s" />
    </circle>
    <!-- AWS Logo -->
    <g transform="translate(-23, -23) scale(3)">
      <path fill="#252F3E" d="M4.51 7.687c0 .197.02.357.058.475.042.117.096.245.17.384a.233.233 0 01.037.123c0 .053-.032.107-.1.16l-.336.224a.255.255 0 01-.138.048c-.054 0-.107-.026-.16-.074a1.652 1.652 0 01-.192-.251 4.137 4.137 0 01-.165-.315c-.415.491-.936.737-1.564.737-.447 0-.804-.129-1.064-.385-.261-.256-.394-.598-.394-1.025 0-.454.16-.822.484-1.1.325-.278.756-.416 1.304-.416.18 0 .367.016.564.042.197.027.4.07.612.118v-.39c0-.406-.085-.689-.25-.854-.17-.166-.458-.246-.868-.246-.186 0-.377.022-.574.07a4.23 4.23 0 00-.575.181 1.525 1.525 0 01-.186.07.326.326 0 01-.085.016c-.075 0-.112-.054-.112-.166v-.262c0-.085.01-.15.037-.186a.399.399 0 01.15-.113c.185-.096.409-.176.67-.24.26-.07.537-.101.83-.101.633 0 1.096.144 1.394.432.293.288.442.726.442 1.314v1.73h.01zm-2.161.811c.175 0 .356-.032.548-.096.191-.064.362-.182.505-.342a.848.848 0 00.181-.341c.032-.129.054-.283.054-.465V7.03a4.43 4.43 0 00-.49-.09 3.996 3.996 0 00-.5-.033c-.357 0-.618.07-.793.214-.176.144-.26.347-.26.614 0 .25.063.437.196.566.128.133.314.197.559.197zm4.273.577c-.096 0-.16-.016-.202-.054-.043-.032-.08-.106-.112-.208l-1.25-4.127a.938.938 0 01-.049-.214c0-.085.043-.133.128-.133h.522c.1 0 .17.016.207.053.043.032.075.107.107.208l.894 3.535.83-3.535c.026-.106.058-.176.1-.208a.365.365 0 01.214-.053h.425c.102 0 .17.016.213.053.043.032.08.107.101.208l.841 3.578.92-3.578a.458.458 0 01.107-.208.346.346 0 01.208-.053h.495c.085 0 .133.043.133.133 0 .027-.006.054-.01.086a.76.76 0 01-.038.133l-1.283 4.127c-.032.107-.069.177-.111.209a.34.34 0 01-.203.053h-.457c-.101 0-.17-.016-.213-.053-.043-.038-.08-.107-.101-.214L8.213 5.37l-.82 3.439c-.026.107-.058.176-.1.213-.043.038-.118.054-.213.054h-.458zm6.838.144a3.51 3.51 0 01-.82-.096c-.266-.064-.473-.134-.612-.214-.085-.048-.143-.101-.165-.15a.378.378 0 01-.031-.149v-.272c0-.112.042-.166.122-.166a.3.3 0 01.096.016c.032.011.08.032.133.054.18.08.378.144.585.187.213.042.42.064.633.064.336 0 .596-.059.777-.176a.575.575 0 00.277-.508.52.52 0 00-.144-.373c-.095-.102-.276-.193-.537-.278l-.772-.24c-.388-.123-.676-.305-.851-.545a1.275 1.275 0 01-.266-.774c0-.224.048-.422.143-.593.096-.17.224-.32.384-.438.16-.122.34-.213.553-.277.213-.064.436-.091.67-.091.118 0 .24.005.357.021.122.016.234.038.346.06.106.026.208.052.303.085.096.032.17.064.224.096a.46.46 0 01.16.133.289.289 0 01.047.176v.251c0 .112-.042.171-.122.171a.552.552 0 01-.202-.064 2.427 2.427 0 00-1.022-.208c-.303 0-.543.048-.708.15-.165.1-.25.256-.25.475 0 .149.053.277.16.379.106.101.303.202.585.293l.756.24c.383.123.66.294.825.513.165.219.244.47.244.748 0 .23-.047.437-.138.619a1.436 1.436 0 01-.388.47c-.165.133-.362.23-.591.299-.24.075-.49.112-.761.112z"/>
      <g fill="#F90" fill-rule="evenodd" clip-rule="evenodd">
        <path d="M14.465 11.813c-1.75 1.297-4.294 1.986-6.481 1.986-3.065 0-5.827-1.137-7.913-3.027-.165-.15-.016-.353.18-.235 2.257 1.313 5.04 2.109 7.92 2.109 1.941 0 4.075-.406 6.039-1.239.293-.133.543.192.255.406z">
          <animate attributeName="fill" values="#F90;#FFA726;#F90" dur="3s" repeatCount="indefinite" begin="0.6s" />
        </path>
        <path d="M15.194 10.98c-.223-.287-1.479-.138-2.048-.069-.17.022-.197-.128-.043-.24 1-.705 2.645-.502 2.836-.267.192.24-.053 1.89-.99 2.68-.143.123-.281.06-.218-.1.213-.53.687-1.72.463-2.003z">
          <animate attributeName="fill" values="#F90;#FFA726;#F90" dur="3s" repeatCount="indefinite" begin="0.7s" />
        </path>
      </g>
    </g>
    <text x="0" y="60" font-family="Arial" font-size="18" text-anchor="middle" fill="#333">AWS</text>
  </g>
  
  <!-- Python - Official SVG -->
  <g transform="translate(475, 200)">
    <circle cx="0" cy="0" r="40" fill="url(#icon-bg)" stroke="#e0e0e0" stroke-width="2">
      <animate attributeName="r" values="35;40;35" dur="3s" repeatCount="indefinite" begin="0.7s" />
    </circle>
    <!-- Python Logo -->
    <g transform="translate(-23, -23) scale(1.5)">
      <path fill-rule="evenodd" clip-rule="evenodd" d="M13.0164 2C10.8193 2 9.03825 3.72453 9.03825 5.85185V8.51852H15.9235V9.25926H5.97814C3.78107 9.25926 2 10.9838 2 13.1111L2 18.8889C2 21.0162 3.78107 22.7407 5.97814 22.7407H8.27322V19.4815C8.27322 17.3542 10.0543 15.6296 12.2514 15.6296H19.5956C21.4547 15.6296 22.9617 14.1704 22.9617 12.3704V5.85185C22.9617 3.72453 21.1807 2 18.9836 2H13.0164ZM12.0984 6.74074C12.8589 6.74074 13.4754 6.14378 13.4754 5.40741C13.4754 4.67103 12.8589 4.07407 12.0984 4.07407C11.3378 4.07407 10.7213 4.67103 10.7213 5.40741C10.7213 6.14378 11.3378 6.74074 12.0984 6.74074Z" fill="url(#paint0_linear_87_8204)">
        <animate attributeName="opacity" values="0.9;1;0.9" dur="3s" repeatCount="indefinite" begin="0.7s" />
      </path>
      <path fill-rule="evenodd" clip-rule="evenodd" d="M18.9834 30C21.1805 30 22.9616 28.2755 22.9616 26.1482V23.4815L16.0763 23.4815L16.0763 22.7408L26.0217 22.7408C28.2188 22.7408 29.9998 21.0162 29.9998 18.8889V13.1111C29.9998 10.9838 28.2188 9.25928 26.0217 9.25928L23.7266 9.25928V12.5185C23.7266 14.6459 21.9455 16.3704 19.7485 16.3704L12.4042 16.3704C10.5451 16.3704 9.03809 17.8296 9.03809 19.6296L9.03809 26.1482C9.03809 28.2755 10.8192 30 13.0162 30H18.9834ZM19.9015 25.2593C19.1409 25.2593 18.5244 25.8562 18.5244 26.5926C18.5244 27.329 19.1409 27.9259 19.9015 27.9259C20.662 27.9259 21.2785 27.329 21.2785 26.5926C21.2785 25.8562 20.662 25.2593 19.9015 25.2593Z" fill="url(#paint1_linear_87_8204)">
        <animate attributeName="opacity" values="0.9;1;0.9" dur="3s" repeatCount="indefinite" begin="0.8s" />
      </path>
    </g>
    <text x="0" y="60" font-family="Arial" font-size="18" text-anchor="middle" fill="#333">Python</text>
  </g>
  
  <!-- Firebase -->
  <g transform="translate(625, 200)">
    <circle cx="0" cy="0" r="40" fill="url(#icon-bg)" stroke="#e0e0e0" stroke-width="2">
      <animate attributeName="r" values="35;40;35" dur="3s" repeatCount="indefinite" begin="0.8s" />
    </circle>
    <path d="M-20,25 L-5,-20 L3,0 L20,25 Z" fill="#FFCA28">
      <animate attributeName="fill" values="#FFCA28;#ffd761;#FFCA28" dur="3s" repeatCount="indefinite" begin="0.8s" />
    </path>
    <path d="M-12,6 L0,-15 L10,5 Z" fill="#FFA000">
      <animate attributeName="fill" values="#FFA000;#ffb333;#FFA000" dur="3s" repeatCount="indefinite" begin="0.8s" />
    </path>
    <text x="0" y="60" font-family="Arial" font-size="18" text-anchor="middle" fill="#333">Firebase</text>
  </g>
  
  <!-- AI/ML -->
  <g transform="translate(400, 300)">
    <circle cx="0" cy="0" r="40" fill="url(#icon-bg)" stroke="#e0e0e0" stroke-width="2">
      <animate attributeName="r" values="35;40;35" dur="3s" repeatCount="indefinite" begin="0.9s" />
    </circle>
    <g>
      <animateTransform
        attributeName="transform"
        type="rotate"
        from="0 0 0"
        to="360 0 0"
        dur="15s"
        repeatCount="indefinite"
      />
      <path d="M-15,-15 L15,15 M-15,15 L15,-15" stroke="#4aba91" stroke-width="5" />
    </g>
    <circle cx="0" cy="0" r="10" fill="#4aba91">
      <animate attributeName="r" values="8;12;8" dur="3s" repeatCount="indefinite" />
    </circle>
    <text x="0" y="60" font-family="Arial" font-size="18" text-anchor="middle" fill="#333">AI/ML</text>
  </g>
  
  <!-- Floating particles (decorative) -->
  <g opacity="0.6">
    <circle cx="120" cy="100" r="4" fill="#f0b742">
      <animate attributeName="cy" values="100;80;100" dur="4s" repeatCount="indefinite" />
      <animate attributeName="cx" values="120;130;120" dur="5s" repeatCount="indefinite" />
    </circle>
    <circle cx="680" cy="100" r="4" fill="#4aba91">
      <animate attributeName="cy" values="100;120;100" dur="4.5s" repeatCount="indefinite" />
      <animate attributeName="cx" values="680;670;680" dur="5.5s" repeatCount="indefinite" />
    </circle>
    <circle cx="120" cy="300" r="4" fill="#4aba91">
      <animate attributeName="cy" values="300;280;300" dur="5s" repeatCount="indefinite" />
      <animate attributeName="cx" values="120;110;120" dur="4s" repeatCount="indefinite" />
    </circle>
    <circle cx="680" cy="300" r="4" fill="#f0b742">
      <animate attributeName="cy" values="300;320;300" dur="5.5s" repeatCount="indefinite" />
      <animate attributeName="cx" values="680;690;680" dur="4.5s" repeatCount="indefinite" />
    </circle>
  </g>
</svg>